# Blender 4.5.0
# www.blender.org
mtllib Scan_XP_Lab.mtl
o Mapping_Model
v -2.644878 -10.071359 -4.314774
v 2.455652 -10.071359 -4.314772
v -2.398216 -10.071359 -4.314773
v 2.455650 -10.071359 -0.686046
v -2.398217 -10.071359 -0.686046
v 2.768174 -10.071359 -4.314771
v 2.768173 -10.071359 -0.299554
v -2.398217 -10.071359 -0.233806
v 2.455650 -10.071359 -0.299554
v 2.455650 -10.071359 0.086365
v 2.768171 -10.071359 4.291826
v -2.644881 -10.071359 4.291824
v -2.644879 -10.071359 -0.233806
v -2.644879 -10.071359 0.152112
v -2.398219 -10.071359 4.291824
v 2.455649 -10.071359 4.291826
v -2.398217 -10.071359 0.152113
v 2.768174 -5.432321 -4.314771
v -2.644878 -5.432321 -4.314773
v 2.768171 -5.432321 4.291826
v -2.644881 -5.432321 4.291824
v 2.768172 -5.432321 -0.299554
v -2.644879 -5.432321 -0.233806
v -2.644879 -5.432321 0.152112
v 2.768172 -5.432321 0.086365
v 2.455652 -5.432321 -4.314771
v -2.398216 -5.432321 -4.314773
v -2.398219 -5.432321 4.291824
v 2.455649 -5.432321 4.291826
v -2.398217 -5.432321 -0.233806
v 2.455650 -5.432321 -0.299554
v -2.398217 -5.432321 0.152113
v 2.455650 -5.432321 0.086365
v -2.644880 -10.071359 1.532016
v -2.644880 -10.071359 2.911920
v -2.644880 -5.432321 1.532016
v -2.644880 -5.432321 2.911920
v -2.644880 -8.090292 1.532016
v -2.644880 -8.090292 2.911920
v 2.768173 -10.071359 0.086365
v 2.768173 -10.071359 -0.693489
v 2.768173 -5.432321 -0.693489
v -2.644879 -5.432321 -0.685552
v -2.644879 -10.071359 -0.685552
v 0.028715 -10.071359 4.291825
v 0.028715 -5.432321 4.291825
vn -0.0000 1.0000 -0.0000
vn 1.0000 -0.0000 -0.0000
vn -0.0000 -0.0000 -1.0000
vn -1.0000 -0.0000 -0.0000
vn -0.0000 -0.0000 1.0000
vt 0.646270 0.720288
vt 0.351340 0.720288
vt 0.351340 0.539167
vt 0.646270 0.539166
vt 0.665260 0.720288
vt 0.665260 0.539570
vt 0.336353 0.720288
vt 0.336353 0.539165
vt 0.000899 0.539165
vt 0.000899 0.516105
vt 0.336353 0.516105
vt 0.665260 0.002116
vt 1.000714 0.002116
vt 1.000714 0.206235
vt 0.665260 0.206235
vt 0.665260 0.493176
vt 1.000714 0.493176
vt 1.000714 0.519461
vt 0.665260 0.519461
vt 0.000899 0.495359
vt 0.336353 0.495359
vt 1.000714 0.539570
vt 1.000714 0.720288
vt 0.665260 0.232520
vt 1.000714 0.232520
vt 1.000714 0.447192
vt 0.665260 0.447192
vt 0.351340 0.998522
vt 0.336353 0.998522
vt 0.336353 0.475660
vt 0.000899 0.475660
vt 0.000899 0.454914
vt 0.336353 0.454914
vt 1.000714 0.473476
vt 0.665260 0.473477
vt 0.336353 0.314037
vt 0.193099 0.314037
vt 0.000899 0.314037
vt 0.000899 0.243599
vt 0.336353 0.243599
vt 0.665260 0.998522
vt 0.646270 0.998522
vt 0.000899 0.222853
vt 0.336353 0.222853
vt 0.000899 0.384476
vt 0.193100 0.384476
vt 0.336353 0.384476
vt 0.000899 0.720288
vt 0.000899 0.018734
vt 0.336353 0.018734
s 0
usemtl Material.001
f 2/1/1 3/2/1 5/3/1 4/4/1
f 6/5/1 2/1/1 4/4/1 41/6/1
f 3/2/1 1/7/1 44/8/1 5/3/1
f 44/8/2 43/9/2 23/10/2 13/11/2
f 45/12/3 46/13/3 29/14/3 16/15/3
f 9/16/3 31/17/3 22/18/3 7/19/3
f 13/11/3 23/10/3 30/20/3 8/21/3
f 41/6/4 42/22/4 18/23/4 6/5/4
f 11/24/4 20/25/4 25/26/4 40/27/4
f 3/2/5 27/28/5 19/29/5 1/7/5
f 17/30/5 32/31/5 24/32/5 14/33/5
f 40/27/5 25/26/5 33/34/5 10/35/5
f 35/36/2 39/37/2 37/38/2 21/39/2 12/40/2
f 6/5/5 18/41/5 26/42/5 2/1/5
f 16/15/3 29/14/3 20/25/3 11/24/3
f 10/35/4 33/34/4 31/17/4 9/16/4
f 2/1/5 26/42/5 27/28/5 3/2/5
f 8/21/2 30/20/2 32/31/2 17/30/2
f 12/40/3 21/39/3 28/43/3 15/44/3
f 14/33/2 24/32/2 36/45/2 38/46/2 34/47/2
f 34/47/2 38/46/2 39/37/2 35/36/2
f 38/46/2 36/45/2 37/38/2 39/37/2
f 7/19/4 22/18/4 42/22/4 41/6/4
f 1/7/2 19/48/2 43/9/2 44/8/2
f 15/44/3 28/43/3 46/49/3 45/50/3
